<svg width="17" height="17" viewBox="0 0 17 17" fill="none" xmlns="http://www.w3.org/2000/svg">
<path d="M4.95833 7.79166V4.95832C4.95833 4.01901 5.33147 3.11818 5.99566 2.45399C6.65985 1.7898 7.56069 1.41666 8.5 1.41666C9.43931 1.41666 10.3401 1.7898 11.0043 2.45399C11.6685 3.11818 12.0417 4.01901 12.0417 4.95832V7.79166M3.54167 7.79166H13.4583C14.2407 7.79166 14.875 8.42592 14.875 9.20832V14.1667C14.875 14.9491 14.2407 15.5833 13.4583 15.5833H3.54167C2.75926 15.5833 2.125 14.9491 2.125 14.1667V9.20832C2.125 8.42592 2.75926 7.79166 3.54167 7.79166Z" stroke="#3494FF" stroke-width="2" stroke-linecap="round" stroke-linejoin="round"/>
</svg>
